<mxfile host="app.diagrams.net" modified="2024-05-27T16:25:55.497Z" agent="Mozilla/5.0 (Windows NT 10.0; Win64; x64) AppleWebKit/537.36 (KHTML, like Gecko) Chrome/125.0.0.0 Safari/537.36" etag="57IW7g5OGMXbXWlwe4Pd" version="24.4.8" type="device">
  <diagram name="Trang-1" id="yTvPoZdZz4M0tJslkIqD">
    <mxGraphModel dx="1434" dy="746" grid="1" gridSize="10" guides="1" tooltips="1" connect="1" arrows="1" fold="1" page="1" pageScale="1" pageWidth="827" pageHeight="1169" math="0" shadow="0">
      <root>
        <mxCell id="0" />
        <mxCell id="1" parent="0" />
        <mxCell id="xC0KTbmHrAvvsW3Cg5GX-18" style="edgeStyle=orthogonalEdgeStyle;rounded=0;orthogonalLoop=1;jettySize=auto;html=1;exitX=0;exitY=0.3333333333333333;exitDx=0;exitDy=0;exitPerimeter=0;entryX=0.5;entryY=0;entryDx=0;entryDy=0;" edge="1" parent="1" source="xC0KTbmHrAvvsW3Cg5GX-15" target="xC0KTbmHrAvvsW3Cg5GX-16">
          <mxGeometry relative="1" as="geometry" />
        </mxCell>
        <mxCell id="xC0KTbmHrAvvsW3Cg5GX-19" style="edgeStyle=orthogonalEdgeStyle;rounded=0;orthogonalLoop=1;jettySize=auto;html=1;exitX=1;exitY=0.3333333333333333;exitDx=0;exitDy=0;exitPerimeter=0;entryX=0.5;entryY=0;entryDx=0;entryDy=0;" edge="1" parent="1" source="xC0KTbmHrAvvsW3Cg5GX-15" target="xC0KTbmHrAvvsW3Cg5GX-17">
          <mxGeometry relative="1" as="geometry" />
        </mxCell>
        <mxCell id="xC0KTbmHrAvvsW3Cg5GX-15" value="Player" style="shape=umlActor;verticalLabelPosition=bottom;verticalAlign=top;html=1;outlineConnect=0;" vertex="1" parent="1">
          <mxGeometry x="1160" y="100" width="30" height="60" as="geometry" />
        </mxCell>
        <mxCell id="xC0KTbmHrAvvsW3Cg5GX-35" style="edgeStyle=orthogonalEdgeStyle;rounded=0;orthogonalLoop=1;jettySize=auto;html=1;exitX=0.5;exitY=1;exitDx=0;exitDy=0;entryX=0.25;entryY=0;entryDx=0;entryDy=0;" edge="1" parent="1" source="xC0KTbmHrAvvsW3Cg5GX-16" target="xC0KTbmHrAvvsW3Cg5GX-31">
          <mxGeometry relative="1" as="geometry" />
        </mxCell>
        <mxCell id="xC0KTbmHrAvvsW3Cg5GX-16" value="PC" style="rounded=0;whiteSpace=wrap;html=1;" vertex="1" parent="1">
          <mxGeometry x="990" y="200" width="120" height="60" as="geometry" />
        </mxCell>
        <mxCell id="xC0KTbmHrAvvsW3Cg5GX-36" style="edgeStyle=orthogonalEdgeStyle;rounded=0;orthogonalLoop=1;jettySize=auto;html=1;exitX=0.5;exitY=1;exitDx=0;exitDy=0;entryX=0.75;entryY=0;entryDx=0;entryDy=0;" edge="1" parent="1" source="xC0KTbmHrAvvsW3Cg5GX-17" target="xC0KTbmHrAvvsW3Cg5GX-31">
          <mxGeometry relative="1" as="geometry" />
        </mxCell>
        <mxCell id="xC0KTbmHrAvvsW3Cg5GX-17" value="Mobile" style="rounded=0;whiteSpace=wrap;html=1;" vertex="1" parent="1">
          <mxGeometry x="1220" y="200" width="120" height="60" as="geometry" />
        </mxCell>
        <mxCell id="xC0KTbmHrAvvsW3Cg5GX-26" style="edgeStyle=orthogonalEdgeStyle;rounded=0;orthogonalLoop=1;jettySize=auto;html=1;exitX=0.5;exitY=0;exitDx=0;exitDy=0;exitPerimeter=0;entryX=0.5;entryY=0;entryDx=0;entryDy=0;" edge="1" parent="1" source="xC0KTbmHrAvvsW3Cg5GX-20" target="xC0KTbmHrAvvsW3Cg5GX-21">
          <mxGeometry relative="1" as="geometry" />
        </mxCell>
        <mxCell id="xC0KTbmHrAvvsW3Cg5GX-20" value="Player" style="shape=umlActor;verticalLabelPosition=bottom;verticalAlign=top;html=1;outlineConnect=0;" vertex="1" parent="1">
          <mxGeometry x="200" y="220" width="30" height="60" as="geometry" />
        </mxCell>
        <mxCell id="xC0KTbmHrAvvsW3Cg5GX-21" value="Rogelike Game Core" style="rounded=0;whiteSpace=wrap;html=1;" vertex="1" parent="1">
          <mxGeometry x="420" y="210" width="120" height="60" as="geometry" />
        </mxCell>
        <mxCell id="xC0KTbmHrAvvsW3Cg5GX-27" style="edgeStyle=orthogonalEdgeStyle;rounded=0;orthogonalLoop=1;jettySize=auto;html=1;exitX=0.5;exitY=1;exitDx=0;exitDy=0;entryX=1;entryY=1;entryDx=0;entryDy=0;entryPerimeter=0;" edge="1" parent="1" source="xC0KTbmHrAvvsW3Cg5GX-21" target="xC0KTbmHrAvvsW3Cg5GX-20">
          <mxGeometry relative="1" as="geometry" />
        </mxCell>
        <mxCell id="xC0KTbmHrAvvsW3Cg5GX-28" value="Database" style="rounded=0;whiteSpace=wrap;html=1;" vertex="1" parent="1">
          <mxGeometry x="1115" y="585" width="120" height="60" as="geometry" />
        </mxCell>
        <mxCell id="xC0KTbmHrAvvsW3Cg5GX-33" style="edgeStyle=orthogonalEdgeStyle;rounded=0;orthogonalLoop=1;jettySize=auto;html=1;exitX=0.5;exitY=1;exitDx=0;exitDy=0;entryX=0.5;entryY=0;entryDx=0;entryDy=0;" edge="1" parent="1" source="xC0KTbmHrAvvsW3Cg5GX-30" target="xC0KTbmHrAvvsW3Cg5GX-28">
          <mxGeometry relative="1" as="geometry" />
        </mxCell>
        <mxCell id="xC0KTbmHrAvvsW3Cg5GX-30" value="API application" style="rounded=0;whiteSpace=wrap;html=1;" vertex="1" parent="1">
          <mxGeometry x="1115" y="490" width="120" height="60" as="geometry" />
        </mxCell>
        <mxCell id="xC0KTbmHrAvvsW3Cg5GX-32" style="edgeStyle=orthogonalEdgeStyle;rounded=0;orthogonalLoop=1;jettySize=auto;html=1;exitX=0.5;exitY=1;exitDx=0;exitDy=0;entryX=0.5;entryY=0;entryDx=0;entryDy=0;" edge="1" parent="1" source="xC0KTbmHrAvvsW3Cg5GX-31" target="xC0KTbmHrAvvsW3Cg5GX-30">
          <mxGeometry relative="1" as="geometry" />
        </mxCell>
        <mxCell id="xC0KTbmHrAvvsW3Cg5GX-31" value="Save/Load Sysem" style="rounded=0;whiteSpace=wrap;html=1;" vertex="1" parent="1">
          <mxGeometry x="1115" y="400" width="120" height="60" as="geometry" />
        </mxCell>
      </root>
    </mxGraphModel>
  </diagram>
</mxfile>
